<svg width="783" height="620" viewBox="0 0 783 620" fill="none" xmlns="http://www.w3.org/2000/svg">
<path opacity="0.983" d="M255.177 0.573242C270.088 0.377435 285 0.577067 299.913 1.07324C300.382 1.21559 300.853 1.38 301.335 1.54883C301.774 1.70246 302.224 1.85667 302.675 1.99707C304.157 4.33953 305.928 6.49697 308.081 8.37402C335.567 75.7383 363.153 143.003 391.038 210.269L391.498 211.378L391.961 210.27C420.256 142.581 448.651 74.8921 476.946 7.30273C478.481 4.72295 480.58 2.6164 483.15 1.07031C498.385 0.377198 513.719 0.377959 528.953 1.07422C530.963 1.34092 532.64 2.33816 533.846 4.00586L534.081 4.34961C537.961 11.018 541.245 17.9867 544.033 25.2559L544.038 25.2676C583.388 120.617 622.713 215.943 662.038 311.268C701.361 406.587 740.684 501.906 780.031 597.25C781.981 602.81 782.285 608.264 781.045 613.818C778.255 616.467 774.907 617.885 770.976 618.077C754 618.776 737.024 618.776 720.048 618.078C716.034 617.487 712.705 616.094 710.042 613.915C707.373 611.731 705.345 608.737 703.971 604.908L703.968 604.9L703.966 604.894L691.841 574.056C631.16 419.894 569.589 266.171 506.963 112.888L506.501 111.757L506.037 112.887C480.237 175.787 454.338 238.586 428.537 301.387L428.459 301.578L428.539 301.77C469.737 400.064 510.634 498.558 551.031 597.252C552.984 602.822 553.286 608.286 552.037 613.852C549.743 616.67 546.715 618.077 543 618.077V618.076L542.996 618.077C442.007 618.777 341.017 618.777 240.027 618.077H240.028C236.605 617.881 234.063 616.909 232.34 615.197C230.625 613.494 229.654 610.993 229.502 607.596C229.502 607.592 229.503 607.589 229.504 607.586L230.983 597.229C230.984 597.223 230.984 597.216 230.985 597.21C272.577 498.529 313.67 399.748 354.462 300.768L354.54 300.579L354.464 300.392C329.463 237.791 304.263 175.289 278.963 112.889L278.508 111.765L278.039 112.884C208.945 277.77 141.649 443.455 76.0547 609.841C72.9406 614.588 68.5855 617.296 62.9502 618.078C45.6738 618.776 28.2977 618.776 11.0215 618.077H11.0225C7.70225 617.931 5.23279 617.007 3.52148 615.366C1.8166 613.731 0.799435 611.323 0.501953 608.07C0.901068 603.246 2.08585 598.713 3.96094 594.271L3.96191 594.27C85.1582 399.678 166.154 204.987 246.95 10.2959C249.089 6.41287 251.8 3.20604 255.177 0.573242ZM390.535 393.893C368.935 448.492 347.235 503.193 325.535 557.893L325.272 558.556L325.985 558.576C369.695 559.876 413.305 559.876 457.015 558.576L457.729 558.556L457.465 557.892C435.664 503.09 413.663 448.389 391.463 393.888L390.993 392.734L390.535 393.893Z" fill="#FEFFFE" stroke="black"/>
</svg>
